<?xml version="1.0" encoding="UTF-8"?>
<svg width="856px" height="207px" viewBox="0 0 856 207" version="1.1" xmlns="http://www.w3.org/2000/svg" xmlns:xlink="http://www.w3.org/1999/xlink">
    <!-- Generator: Sketch 49.3 (51167) - http://www.bohemiancoding.com/sketch -->
    <title>thermokon_mit_claim_rotgrau</title>
    <desc>Created with Sketch.</desc>
    <defs>
        <polygon id="path-1" points="0.06 0.603 595.765 0.603 595.765 118.165 0.06 118.165"></polygon>
    </defs>
    <g id="Page-1" stroke="none" stroke-width="1" fill="none" fill-rule="evenodd">
        <g id="thermokon_mit_claim_rotgrau">
            <polygon id="Fill-1" fill="#D8232A" points="96.224 118.072 115.578 118.072 115.578 0.927 96.224 0.927"></polygon>
            <path d="M122.613,33.829 L122.613,51.915 C122.613,51.915 138.39,51.107 145.102,57.625 C151.812,64.135 151.196,71.357 151.196,71.357 L151.196,131.873 C151.196,131.873 151.196,140.912 160.405,140.912 C169.494,140.912 169.494,131.873 169.494,131.873 L169.494,71.357 C169.494,71.357 169.494,56.14 161.489,46.887 C149.716,31.574 122.613,33.829 122.613,33.829" id="Fill-2" fill="#D8232A"></path>
            <path d="M251.97,53.644 C251.97,53.644 254.325,49.291 250.271,44.034 C243.743,34.318 178.857,20.065 177.354,84.642 C179.363,118.947 209.937,131.517 236.139,125.103 C269.129,117.154 269.492,80.214 269.492,80.214 L252.598,78.865 C252.598,78.865 251.707,89.081 248.203,94.946 C246.518,98.395 238.531,108.636 226.594,109.332 C212.864,110.1 197.703,104.644 194.589,83.893 C191.849,56.218 219.542,47.707 228.234,52.608 C231.166,53.885 231.105,54.723 231.105,54.723 L207.308,88.129 L222.006,95.452 L251.97,53.644" id="Fill-3" fill="#D8232A"></path>
            <path d="M333.287,40.876 L324.603,54.903 C324.603,54.903 310.298,46.663 300.315,57.374 C294.225,63.815 294.225,71.357 294.225,71.357 L294.225,118.035 L276.226,118.035 L276.226,71.357 C276.226,71.357 276.226,54.715 287.756,45.024 C313.271,22.48 333.287,40.876 333.287,40.876" id="Fill-4" fill="#D8232A"></path>
            <g id="Group-9">
                <mask id="mask-2" fill="white">
                    <use xlink:href="#path-1"></use>
                </mask>
                <g id="Clip-6"></g>
                <path d="M401.715,47.158 C401.715,47.158 409.67,34.506 432.593,34.164 C471.745,34.308 472.113,71.357 472.113,71.357 L472.113,118.028 L454.36,118.028 L454.356,71.357 C454.356,71.357 456.011,51.912 432.841,51.912 C409.67,51.912 409.741,71.357 409.741,71.357 L409.67,118.028 L392.858,118.028 L392.727,71.461 C392.727,71.461 392.996,52.042 371.097,51.977 C349.201,51.912 349.113,71.333 349.113,71.333 L349.201,118.028 L332,118.028 L332.033,71.357 C332.033,71.357 332,34.704 371.339,34.577 C392.858,34.704 401.715,47.158 401.715,47.158" id="Fill-5" fill="#D8232A" mask="url(#mask-2)"></path>
                <polyline id="Fill-7" fill="#D8232A" mask="url(#mask-2)" points="84.243 35.034 67.707 35.034 67.707 1.009 48.354 1.009 48.354 35.034 0 35.034 0 54.387 48.354 54.387 48.354 118.165 67.707 118.165 67.707 54.387 84.243 54.387 84.243 35.034"></polyline>
                <polygon id="Fill-8" fill="#D8232A" mask="url(#mask-2)" points="576.412 117.748 595.765 117.748 595.765 0.603 576.412 0.603"></polygon>
            </g>
            <path d="M632.162,117.851 L597.785,71.357 C597.785,71.357 596.443,69.255 596.424,66.857 C596.71,64.547 597.735,63.233 597.735,63.233 L623.71,36.266 L636.128,46.922 L617.335,67.381 C617.335,67.381 616.197,68.756 618.149,71.357 C618.208,71.357 653.599,117.851 653.599,117.851 L632.162,117.851" id="Fill-10" fill="#D8232A"></path>
            <path d="M822.239,70.641 L822.167,118.298 L805.196,118.298 L805.071,70.752 C805.071,70.752 805.341,51.329 783.248,51.261 C761.154,51.196 761.062,70.62 761.062,70.62 L761.154,118.298 L743.8,118.298 L743.833,70.641 C743.833,70.641 743.876,33.692 783.485,33.861 C824.367,33.928 822.239,70.641 822.239,70.641" id="Fill-11" fill="#D8232A"></path>
            <path d="M524.192,108.347 C506.053,108.237 495.767,93.433 495.767,79.521 C495.767,66.566 507.099,51.894 524.072,51.915 C541.81,51.933 552.174,67.204 552.242,79.537 C552.25,79.537 552.257,79.537 552.264,79.537 C552.234,79.537 552.206,79.537 552.174,79.537 C552.181,95.183 540.023,108.435 524.192,108.347 Z M568.797,79.554 C569.275,79.555 569.749,79.555 570.256,79.555 C570.318,60.818 554.932,34.571 524.242,34.412 C496.306,34.264 478.604,58.352 478.604,79.685 C478.604,104.067 497.468,126.124 524.242,126.124 C553.875,126.124 570.318,101.454 570.256,79.555 C569.742,79.555 569.261,79.555 568.797,79.554 Z" id="Fill-12" fill="#D8232A"></path>
            <path d="M691.326,108.347 C673.187,108.237 662.902,93.433 662.902,79.521 C662.902,66.566 674.234,51.894 691.204,51.915 C708.945,51.933 719.308,67.204 719.375,79.537 C719.382,79.537 719.39,79.537 719.398,79.537 C719.368,79.537 719.339,79.537 719.308,79.537 C719.315,95.183 707.158,108.435 691.326,108.347 Z M735.931,79.554 C736.409,79.555 736.882,79.555 737.39,79.555 C737.451,60.818 722.066,34.571 691.375,34.412 C663.439,34.264 645.739,58.352 645.739,79.685 C645.739,104.067 664.6,126.124 691.375,126.124 C721.003,126.124 737.451,101.454 737.39,79.555 C736.876,79.555 736.395,79.555 735.931,79.554 Z" id="Fill-13" fill="#D8232A"></path>
            <path d="M843.37,28.626 L841.781,25.441 C840.681,23.251 839.519,21.398 838.54,20.474 L835.706,20.474 L835.706,28.478 L832.934,28.478 L832.934,9.202 C835.129,8.944 836.867,8.794 838.513,8.794 C841.984,8.794 844.871,10.269 844.871,14.401 C844.871,17.09 843.221,19 840.911,19.632 C841.984,20.529 843.167,22.064 844.206,24.055 L846.368,28.274 C845.482,28.511 844.321,28.626 843.37,28.626 M838.391,11.078 C837.56,11.078 836.458,11.161 835.706,11.254 L835.706,18.251 L838.079,18.251 C840.564,18.251 842.01,17.09 842.01,14.549 C842.01,12.09 840.645,11.078 838.391,11.078" id="Fill-14" fill="#D8232A"></path>
            <path d="M838.81,36.081 C829.165,36.081 822.167,29.138 822.167,18.257 C822.167,7.767 829.112,0.604 838.81,0.604 C848.173,0.604 855.5,7.371 855.5,18.257 C855.5,29.028 848.512,36.081 838.81,36.081 M838.81,3.085 C830.068,3.085 824.826,9.351 824.826,18.427 C824.826,27.223 830.41,33.649 838.81,33.649 C847.209,33.649 852.798,27.621 852.798,18.427 C852.798,9.23 846.874,3.085 838.81,3.085" id="Fill-15" fill="#D8232A"></path>
            <polyline id="Fill-16" fill="#777776" points="70.783 206.443 70.783 187.799 51.526 187.799 51.526 206.443 48.354 206.443 48.354 168.93 51.526 168.93 51.526 185.017 70.783 185.017 70.783 168.93 73.955 168.93 73.955 206.443 70.783 206.443"></polyline>
            <path d="M98.908,171.214 C91.34,171.214 87.389,175.388 87.389,187.686 C87.389,199.097 90.727,204.159 98.908,204.159 C106.868,204.159 110.373,199.319 110.373,187.686 C110.373,175.555 106.421,171.214 98.908,171.214 Z M98.908,206.999 C89.17,206.999 83.993,200.542 83.993,187.909 C83.993,175.165 89.335,168.377 98.908,168.377 C108.649,168.377 113.767,174.831 113.767,187.686 C113.767,200.597 108.091,206.999 98.908,206.999 Z" id="Fill-17" fill="#777776"></path>
            <path d="M155.915,206.61 L153.244,175.778 C153.189,174.998 153.189,174.11 153.189,172.718 L152.911,172.718 C152.8,173.829 152.578,174.889 152.299,175.778 L142.114,206.443 L139.275,206.443 L129.315,175.778 C129.036,174.944 128.869,173.883 128.757,172.718 L128.479,172.718 C128.479,174.051 128.424,175.165 128.368,175.778 L125.418,206.61 C124.638,206.61 123.415,206.497 122.692,206.275 C123.637,193.976 124.974,181.51 126.419,168.93 L129.927,168.93 L139.833,199.042 C140.166,200.044 140.501,201.544 140.723,202.994 L141.002,202.994 C141.167,201.544 141.446,200.044 141.781,198.984 L151.798,168.93 L155.415,168.93 C156.806,181.456 158.031,194.031 158.865,206.275 C157.975,206.497 156.862,206.61 155.915,206.61" id="Fill-18" fill="#777776"></path>
            <path d="M190.781,206.443 L170.022,206.443 L170.022,168.93 L190.169,168.93 C190.169,169.877 190.056,170.77 189.891,171.712 L173.194,171.712 L173.194,185.185 L186.104,185.185 L186.104,187.967 L173.194,187.967 L173.194,203.661 L191.058,203.661 C191.058,204.548 190.946,205.609 190.781,206.443" id="Fill-19" fill="#777776"></path>
            <path d="M224.695,171.214 C217.127,171.214 213.176,175.388 213.176,187.686 C213.176,199.097 216.514,204.159 224.695,204.159 C232.655,204.159 236.16,199.319 236.16,187.686 C236.16,175.555 232.208,171.214 224.695,171.214 Z M224.695,206.999 C214.957,206.999 209.78,200.542 209.78,187.909 C209.78,175.165 215.122,168.377 224.695,168.377 C234.436,168.377 239.554,174.831 239.554,187.686 C239.554,200.597 233.878,206.999 224.695,206.999 Z" id="Fill-20" fill="#777776"></path>
            <path d="M269.85,171.712 L252.764,171.712 L252.764,185.851 L266.678,185.851 L266.678,188.633 L252.764,188.633 L252.764,206.443 L249.592,206.443 L249.592,168.93 L270.126,168.93 C270.126,169.936 270.015,170.878 269.85,171.712" id="Fill-21" fill="#777776"></path>
            <path d="M297.864,206.999 C294.859,206.999 290.852,206.556 288.015,205.273 C288.125,204.44 288.516,203.103 288.849,202.377 C292.021,203.769 294.803,204.159 298.032,204.159 C303.318,204.159 306.211,201.766 306.211,197.261 C306.211,187.799 287.901,188.58 287.901,178.17 C287.901,171.88 292.689,168.377 299.645,168.377 C302.038,168.377 305.434,168.654 307.437,169.157 C307.437,169.656 307.102,171.382 306.769,172.215 C304.655,171.549 301.872,171.214 299.534,171.214 C292.689,171.214 291.019,173.997 291.019,177.726 C291.019,185.959 309.329,185.185 309.329,197.035 C309.329,202.545 305.321,206.999 297.864,206.999" id="Fill-22" fill="#777776"></path>
            <path d="M339.287,206.443 L318.528,206.443 L318.528,168.93 L338.673,168.93 C338.673,169.877 338.562,170.77 338.396,171.712 L321.7,171.712 L321.7,185.185 L334.61,185.185 L334.61,187.967 L321.7,187.967 L321.7,203.661 L339.566,203.661 C339.566,204.548 339.453,205.609 339.287,206.443" id="Fill-23" fill="#777776"></path>
            <path d="M374.808,206.275 C374.028,206.556 373.083,206.719 372.193,206.719 L353.883,176.67 C353.437,175.945 352.436,173.883 351.991,172.773 L351.712,172.828 C351.878,174.051 352.045,175.778 352.045,176.833 L352.045,206.443 L349.152,206.443 L349.152,169.266 C350.097,168.989 351.434,168.822 352.381,168.822 L370.077,197.873 C370.802,199.097 371.524,200.597 371.971,201.766 L372.248,201.711 C372.082,200.656 371.914,198.761 371.914,197.706 L371.914,168.93 L374.808,168.93 L374.808,206.275" id="Fill-24" fill="#777776"></path>
            <path d="M394.808,206.999 C391.803,206.999 387.795,206.556 384.958,205.273 C385.069,204.44 385.459,203.103 385.792,202.377 C388.964,203.769 391.747,204.159 394.976,204.159 C400.261,204.159 403.155,201.766 403.155,197.261 C403.155,187.799 384.845,188.58 384.845,178.17 C384.845,171.88 389.633,168.377 396.588,168.377 C398.981,168.377 402.377,168.654 404.381,169.157 C404.381,169.656 404.045,171.382 403.712,172.215 C401.598,171.549 398.816,171.214 396.478,171.214 C389.633,171.214 387.963,173.997 387.963,177.726 C387.963,185.959 406.272,185.185 406.272,197.035 C406.272,202.545 402.264,206.999 394.808,206.999" id="Fill-25" fill="#777776"></path>
            <path d="M428.16,171.214 C420.592,171.214 416.641,175.388 416.641,187.686 C416.641,199.097 419.978,204.159 428.16,204.159 C436.12,204.159 439.625,199.319 439.625,187.686 C439.625,175.555 435.673,171.214 428.16,171.214 Z M428.16,206.999 C418.422,206.999 413.244,200.542 413.244,187.909 C413.244,175.165 418.587,168.377 428.16,168.377 C437.9,168.377 443.019,174.831 443.019,187.686 C443.019,200.597 437.343,206.999 428.16,206.999 Z" id="Fill-26" fill="#777776"></path>
            <path d="M462.464,171.16 C460.74,171.16 457.9,171.382 456.174,171.604 L456.174,187.356 L461.852,187.356 C468.029,187.356 471.09,184.569 471.09,179.004 C471.09,173.163 467.75,171.16 462.464,171.16 Z M473.929,206.665 L470.478,200.153 C468.14,195.757 465.636,192.028 463.298,190.08 L456.174,190.08 L456.174,206.443 L453.059,206.443 L453.059,169.32 C456.675,168.822 459.736,168.54 462.464,168.54 C468.865,168.54 474.318,171.046 474.318,179.004 C474.318,184.292 471.201,188.022 466.083,189.191 C468.029,190.691 470.7,193.863 473.038,198.205 L477.323,206.107 C476.433,206.443 475.041,206.61 473.929,206.665 Z" id="Fill-27" fill="#777776"></path>
            <path d="M516.415,171.712 L505.894,171.712 L505.894,206.443 L502.722,206.443 L502.722,171.712 L492.148,171.712 L492.148,168.93 L516.804,168.93 C516.804,169.823 516.691,170.77 516.415,171.712" id="Fill-28" fill="#777776"></path>
            <path d="M544.924,206.443 L524.166,206.443 L524.166,168.93 L544.311,168.93 C544.311,169.877 544.2,170.77 544.035,171.712 L527.337,171.712 L527.337,185.185 L540.249,185.185 L540.249,187.967 L527.337,187.967 L527.337,203.661 L545.204,203.661 C545.204,204.548 545.09,205.609 544.924,206.443" id="Fill-29" fill="#777776"></path>
            <path d="M568.257,206.999 C557.794,206.999 552.563,200.321 552.563,187.632 C552.563,174.218 558.795,168.377 568.48,168.377 C571.597,168.377 575.16,169.043 577.273,170.267 C577.106,171.214 576.716,172.27 576.329,173.163 C574.101,171.88 571.374,171.214 568.425,171.214 C560.022,171.214 555.959,175.61 555.959,187.854 C555.959,198.816 559.632,204.159 568.201,204.159 C571.319,204.159 574.212,203.493 577.051,201.711 C577.441,202.604 577.774,203.547 577.996,204.607 C575.27,206.275 571.597,206.999 568.257,206.999" id="Fill-30" fill="#777776"></path>
            <polyline id="Fill-31" fill="#777776" points="608.792 206.443 608.792 187.799 589.536 187.799 589.536 206.443 586.364 206.443 586.364 168.93 589.536 168.93 589.536 185.017 608.792 185.017 608.792 168.93 611.964 168.93 611.964 206.443 608.792 206.443"></polyline>
            <path d="M649.882,206.275 C649.103,206.556 648.158,206.719 647.268,206.719 L628.958,176.67 C628.511,175.945 627.51,173.883 627.066,172.773 L626.788,172.828 C626.953,174.051 627.121,175.778 627.121,176.833 L627.121,206.443 L624.227,206.443 L624.227,169.266 C625.171,168.989 626.508,168.822 627.456,168.822 L645.152,197.873 C645.876,199.097 646.599,200.597 647.045,201.766 L647.322,201.711 C647.157,200.656 646.989,198.761 646.989,197.706 L646.989,168.93 L649.882,168.93 L649.882,206.275" id="Fill-32" fill="#777776"></path>
            <path d="M674.835,171.214 C667.268,171.214 663.316,175.388 663.316,187.686 C663.316,199.097 666.654,204.159 674.835,204.159 C682.795,204.159 686.3,199.319 686.3,187.686 C686.3,175.555 682.349,171.214 674.835,171.214 Z M674.835,206.999 C665.097,206.999 659.919,200.542 659.919,187.909 C659.919,175.165 665.262,168.377 674.835,168.377 C684.576,168.377 689.695,174.831 689.695,187.686 C689.695,200.597 684.019,206.999 674.835,206.999 Z" id="Fill-33" fill="#777776"></path>
            <path d="M719.102,206.443 L699.734,206.443 L699.734,168.93 L702.906,168.93 L702.906,203.661 L719.492,203.661 C719.492,204.494 719.378,205.441 719.102,206.443" id="Fill-34" fill="#777776"></path>
            <path d="M738.316,171.214 C730.749,171.214 726.796,175.388 726.796,187.686 C726.796,199.097 730.134,204.159 738.316,204.159 C746.276,204.159 749.781,199.319 749.781,187.686 C749.781,175.555 745.83,171.214 738.316,171.214 Z M738.316,206.999 C728.578,206.999 723.4,200.542 723.4,187.909 C723.4,175.165 728.743,168.377 738.316,168.377 C748.056,168.377 753.175,174.831 753.175,187.686 C753.175,200.597 747.5,206.999 738.316,206.999 Z" id="Fill-35" fill="#777776"></path>
            <path d="M777.96,206.999 C766.216,206.999 760.985,200.542 760.985,187.632 C760.985,174.218 767.497,168.377 778.182,168.377 C781.244,168.377 784.527,168.875 787.086,170.099 C786.921,170.992 786.475,172.27 786.142,173.109 C784.083,171.994 780.799,171.214 778.127,171.214 C769.446,171.214 764.381,174.944 764.381,187.854 C764.381,200.877 769.446,204.159 778.182,204.159 C779.909,204.159 782.691,203.769 784.805,202.767 L784.805,190.972 L776.068,190.972 C775.846,190.193 775.733,188.969 775.733,188.13 L787.977,188.13 L787.977,204.607 C785.417,205.94 781.411,206.999 777.96,206.999" id="Fill-36" fill="#777776"></path>
            <path d="M810.035,191.751 L810.035,206.443 L806.863,206.443 L806.863,191.751 C802.356,184.238 798.405,176.557 794.954,169.157 C795.844,168.93 797.178,168.822 798.182,168.822 L807.198,186.63 C807.587,187.41 807.975,188.244 808.365,189.246 L808.643,189.246 C808.979,188.244 809.312,187.41 809.756,186.517 L818.996,168.822 C820.054,168.822 821.221,168.93 822.167,169.157 C817.883,177.613 814.598,183.957 810.035,191.751" id="Fill-37" fill="#777776"></path>
        </g>
    </g>
</svg>